<svg width="24" height="24" viewBox="0 0 24 24" fill="none" xmlns="http://www.w3.org/2000/svg">
<path d="M3 21V3C3 2.44772 3.44772 2 4 2H9C9.55228 2 10 2.44772 10 3V21C10 21.5523 9.55228 22 9 22H4C3.44772 22 3 21.5523 3 21Z" stroke="#3D3D3E" stroke-width="2" stroke-linecap="round" stroke-linejoin="round"/>
<path d="M14 21V10C14 9.44772 14.4477 9 15 9H20C20.5523 9 21 9.44772 21 10V21C21 21.5523 20.5523 22 20 22H15C14.4477 22 14 21.5523 14 21Z" stroke="#3D3D3E" stroke-width="2" stroke-linecap="round" stroke-linejoin="round"/>
</svg>
