<svg width="162" height="30" viewBox="0 0 162 30" fill="none" xmlns="http://www.w3.org/2000/svg">
<g clip-path="url(#clip0_1_288)">
<path fill-rule="evenodd" clip-rule="evenodd" d="M15.0282 15.5233C13.5969 18.1395 12.7024 21.1047 12.7024 24.2442H17.5329C17.6223 20.407 19.2325 16.9186 21.7372 14.3895C24.0629 12.1221 27.1044 10.6395 30.5036 10.2907C30.593 11.8605 30.6825 13.4302 30.6825 14.9128C30.6825 19.8837 29.9669 26.25 28.4462 27.7326C26.9255 29.2151 20.3954 29.9128 15.2965 29.9128C10.1977 29.9128 3.66759 29.2151 2.14688 27.7326C1.52071 27.1221 1.07344 25.814 0.715627 24.157C5.18829 23.6337 9.21369 21.7151 12.2551 18.75C13.3285 17.7907 14.3125 16.7442 15.0282 15.5233ZM0 15C0 10.0291 0.715627 3.66279 2.23633 2.18023C3.75704 0.697674 10.2871 0 15.386 0C20.4848 0 27.0149 0.697674 28.5356 2.18023C29.1618 2.7907 29.6091 4.09884 29.9669 5.75581C25.4942 6.27907 21.4688 8.19767 18.4274 11.1628C17.4434 12.1221 16.4594 13.2558 15.7438 14.4767C17.175 11.8605 18.0696 8.80814 18.0696 5.6686H13.2391C13.2391 9.50581 11.6289 12.9942 9.03479 15.5233C6.709 17.7907 3.66759 19.2733 0.26836 19.6221C0.0894533 18.0523 0 16.4826 0 15Z" fill="#0D5CF0"/>
<path fill-rule="evenodd" clip-rule="evenodd" d="M40.9696 14.9128C40.9696 10.2035 44.5478 6.71512 49.3783 6.71512C53.2247 6.71512 56.624 8.98256 57.3396 12.8198H53.9404C53.3142 10.814 51.5251 9.76744 49.4677 9.76744C46.4263 9.76744 44.3689 11.9477 44.3689 15C44.3689 18.0523 46.5157 20.2326 49.3783 20.2326C51.5251 20.2326 53.3142 19.0988 53.9404 17.093H57.3396C56.5345 21.0174 53.1353 23.1977 49.3783 23.1977C44.5478 23.1977 40.9696 19.6221 40.9696 14.9128Z" fill="#0D5CF0"/>
<path fill-rule="evenodd" clip-rule="evenodd" d="M74.6041 7.06396V22.8488H71.2943V16.2209L71.5627 11.25L63.5119 22.8488H59.5759V7.06396H62.8857V13.6047L62.7068 18.5756L70.7576 7.06396H74.6041Z" fill="#0D5CF0"/>
<path fill-rule="evenodd" clip-rule="evenodd" d="M90.5268 15.1744C90.5268 12.1221 88.4694 10.2035 85.6963 10.2035C82.9233 10.2035 80.5975 12.1221 80.5975 15.1744C80.5975 18.314 82.7443 20.3198 85.5174 20.3198C88.2905 20.407 90.5268 18.4012 90.5268 15.1744ZM93.8366 15C93.8366 19.8837 90.2584 23.1105 85.6069 23.1105C81.0447 23.1105 77.1982 20.0581 77.1982 13.4302C77.1982 2.18023 82.8338 0.261627 91.7791 0.261627V3.48837C84.444 3.48837 81.0447 4.62209 80.508 10.7267C81.6709 8.54651 83.9967 7.41279 86.4119 7.41279C90.6162 7.41279 93.8366 10.4651 93.8366 15Z" fill="#0D5CF0"/>
<path fill-rule="evenodd" clip-rule="evenodd" d="M95.8045 14.9128C95.8045 10.2035 99.3827 6.71512 104.213 6.71512C108.06 6.71512 111.459 8.98256 112.174 12.8198H108.775C108.149 10.814 106.36 9.76744 104.303 9.76744C101.261 9.76744 99.2038 11.9477 99.2038 15C99.2038 18.0523 101.351 20.2326 104.213 20.2326C106.36 20.2326 108.149 19.0988 108.775 17.093H112.174C111.369 21.0174 107.97 23.1977 104.213 23.1977C99.3827 23.1977 95.8045 19.6221 95.8045 14.9128Z" fill="#0D5CF0"/>
<path fill-rule="evenodd" clip-rule="evenodd" d="M117.452 13.1686H126.845C126.308 10.9884 124.698 9.50582 122.193 9.50582C119.689 9.50582 117.989 11.0756 117.452 13.1686ZM130.423 15.7849H117.273C117.542 18.6628 119.599 20.3198 122.372 20.3198C124.34 20.3198 125.95 19.5349 126.666 17.9651H130.065C128.813 21.4535 125.682 23.1977 122.283 23.1977C117.363 23.1977 113.874 19.7965 113.874 15C113.874 10.2035 117.363 6.71512 122.193 6.71512C127.471 6.71512 130.691 10.6395 130.423 15.7849Z" fill="#0D5CF0"/>
<path fill-rule="evenodd" clip-rule="evenodd" d="M145.093 10.1163H139.905V22.8488H136.506V10.1163H131.228V7.06396H139.905H145.093V10.1163Z" fill="#0D5CF0"/>
<path fill-rule="evenodd" clip-rule="evenodd" d="M162 7.06396V22.8488H158.69V16.2209L158.869 11.25L150.908 22.8488H146.972V7.06396H150.282V13.6047L150.103 18.5756L158.064 7.06396H162Z" fill="#0D5CF0"/>
</g>
<defs>
<clipPath id="clip0_1_288">
<rect width="162" height="30" fill="white"/>
</clipPath>
</defs>
</svg>
