<svg width="24" height="24" viewBox="0 0 24 24" fill="none" xmlns="http://www.w3.org/2000/svg">
<path d="M12 4V4C8.13401 4 5 7.13401 5 11V12.6166C5 13.4809 4.56805 14.288 3.84891 14.7674L3.3359 15.1094C2.5013 15.6658 2 16.6025 2 17.6056V18C2 18.5523 2.44772 19 3 19H21C21.5523 19 22 18.5523 22 18V17.6056C22 16.6025 21.4987 15.6658 20.6641 15.1094L20.1511 14.7674C19.432 14.288 19 13.4809 19 12.6166V11C19 7.13401 15.866 4 12 4V4ZM12 4V2M11.7273 22H12.2727C13.779 22 15 20.779 15 19.2727V19.2727C15 19.1221 14.8779 19 14.7273 19H9.27273C9.1221 19 9 19.1221 9 19.2727V19.2727C9 20.779 10.221 22 11.7273 22Z" stroke="#1C1C1E" stroke-width="2" stroke-linecap="round" stroke-linejoin="round"/>
</svg>
