<svg width="24" height="24" viewBox="0 0 24 24" fill="none" xmlns="http://www.w3.org/2000/svg">
<path d="M1 9V4C1 3.44772 1.44772 3 2 3H22C22.5523 3 23 3.44772 23 4V9C23 9.55228 22.5523 10 22 10H2C1.44772 10 1 9.55228 1 9Z" stroke="#0D5CF0" stroke-width="2" stroke-linecap="round" stroke-linejoin="round"/>
<path d="M1 20V15C1 14.4477 1.44772 14 2 14H22C22.5523 14 23 14.4477 23 15V20C23 20.5523 22.5523 21 22 21H2C1.44772 21 1 20.5523 1 20Z" stroke="#0D5CF0" stroke-width="2" stroke-linecap="round" stroke-linejoin="round"/>
</svg>
